<svg width="15" height="13" viewBox="0 0 15 13" fill="none" xmlns="http://www.w3.org/2000/svg">
<g clip-path="url(#clip0_1_2125)">
<path d="M2.37388 9.34299C2.46237 9.2545 2.58405 9.20288 2.7131 9.20288H14.4162C14.6301 9.20288 14.737 9.46098 14.5858 9.61216L12.274 11.924C12.1855 12.0125 12.0638 12.0641 11.9348 12.0641H0.231621C0.0177645 12.0641 -0.0891639 11.806 0.0620108 11.6549L2.37388 9.34299Z" fill="url(#paint0_linear_1_2125)"/>
<path d="M2.37388 0.71128C2.46606 0.622788 2.58774 0.571167 2.7131 0.571167H14.4162C14.6301 0.571167 14.737 0.82927 14.5858 0.980445L12.274 3.29231C12.1855 3.3808 12.0638 3.43243 11.9348 3.43243H0.231621C0.0177645 3.43243 -0.0891639 3.17432 0.0620108 3.02315L2.37388 0.71128Z" fill="url(#paint1_linear_1_2125)"/>
<path d="M12.274 4.99949C12.1855 4.911 12.0638 4.85938 11.9348 4.85938H0.231621C0.0177645 4.85938 -0.0891639 5.11748 0.0620108 5.26865L2.37388 7.58052C2.46237 7.66901 2.58405 7.72063 2.7131 7.72063H14.4162C14.6301 7.72063 14.737 7.46253 14.5858 7.31136L12.274 4.99949Z" fill="url(#paint2_linear_1_2125)"/>
</g>
<defs>
<linearGradient id="paint0_linear_1_2125" x1="13.2982" y1="-0.809877" x2="5.19874" y2="14.7039" gradientUnits="userSpaceOnUse">
<stop stop-color="#00FFA3"/>
<stop offset="1" stop-color="#DC1FFF"/>
</linearGradient>
<linearGradient id="paint1_linear_1_2125" x1="9.7567" y1="-2.65886" x2="1.6572" y2="12.8549" gradientUnits="userSpaceOnUse">
<stop stop-color="#00FFA3"/>
<stop offset="1" stop-color="#DC1FFF"/>
</linearGradient>
<linearGradient id="paint2_linear_1_2125" x1="11.5162" y1="-1.74025" x2="3.4167" y2="13.7736" gradientUnits="userSpaceOnUse">
<stop stop-color="#00FFA3"/>
<stop offset="1" stop-color="#DC1FFF"/>
</linearGradient>
<clipPath id="clip0_1_2125">
<rect width="14.664" height="11.493" fill="white" transform="translate(-0.00805664 0.571167)"/>
</clipPath>
</defs>
</svg>
