<svg width="30" height="30" viewBox="0 0 30 30" fill="none" xmlns="http://www.w3.org/2000/svg">
<path d="M13.5025 22.2125C13.6179 22.2127 13.7321 22.2356 13.8387 22.2799C13.9452 22.3242 14.042 22.3891 14.1235 22.4708C14.205 22.5525 14.2696 22.6495 14.3136 22.7561C14.3576 22.8628 14.3802 22.9771 14.38 23.0925C14.3798 23.2079 14.357 23.3222 14.3126 23.4287C14.2683 23.5353 14.2035 23.632 14.1217 23.7135C14.04 23.795 13.9431 23.8596 13.8364 23.9036C13.7297 23.9476 13.6154 23.9702 13.5 23.97C13.2669 23.9697 13.0436 23.8768 12.879 23.7118C12.7144 23.5467 12.6222 23.3231 12.6225 23.09C12.6228 22.857 12.7157 22.6336 12.8808 22.469C13.0458 22.3045 13.2694 22.2122 13.5025 22.2125ZM27.2825 16.7788C27.1671 16.7787 27.0529 16.7559 26.9463 16.7116C26.8397 16.6674 26.7429 16.6026 26.6613 16.5209C26.5798 16.4393 26.5151 16.3424 26.471 16.2357C26.4269 16.1291 26.4043 16.0148 26.4044 15.8994C26.4045 15.784 26.4273 15.6697 26.4715 15.5632C26.5157 15.4566 26.5805 15.3597 26.6622 15.2782C26.7439 15.1967 26.8408 15.132 26.9474 15.0879C27.0541 15.0438 27.1684 15.0212 27.2838 15.0213C27.5168 15.0214 27.7403 15.1142 27.9049 15.2791C28.0696 15.444 28.162 15.6676 28.1619 15.9006C28.1617 16.1337 28.069 16.3572 27.9041 16.5218C27.7391 16.6865 27.5156 16.7789 27.2825 16.7788ZM27.2825 13.1838C26.562 13.1844 25.8712 13.471 25.3617 13.9804C24.8522 14.4899 24.5657 15.1807 24.565 15.9013C24.565 16.1925 24.6138 16.4825 24.7088 16.765L15.7325 21.5438C15.4836 21.1824 15.1506 20.8869 14.7621 20.6829C14.3736 20.4788 13.9413 20.3723 13.5025 20.3725C12.4663 20.3725 11.5225 20.9663 11.065 21.8925L3.00126 17.64C2.14876 17.1925 1.51126 15.79 1.57876 14.5125C1.61376 13.8463 1.84376 13.3288 2.19501 13.1288C2.41751 13.0038 2.68501 13.0138 2.97001 13.1625L3.02251 13.1913C5.16001 14.3163 12.1525 18 12.4475 18.1363C12.9013 18.3475 13.1538 18.4325 13.9288 18.065L28.3838 10.5475C28.5963 10.4675 28.8438 10.2638 28.8438 9.95502C28.8438 9.52752 28.4013 9.35877 28.4 9.35877C27.5775 8.96502 26.3138 8.37377 25.0813 7.79627C22.4463 6.56252 19.46 5.16502 18.1488 4.47752C17.0163 3.88502 16.105 4.38502 15.9425 4.48502L15.6275 4.64127C9.72501 7.56002 1.82501 11.4725 1.37501 11.7463C0.571258 12.2363 0.0725075 13.2125 0.00750754 14.4238C-0.0924925 16.345 0.886258 18.3488 2.28751 19.0825L10.815 23.48C10.9089 24.126 11.2322 24.7166 11.7256 25.1439C12.219 25.5713 12.8497 25.8068 13.5025 25.8075C14.2154 25.8063 14.8994 25.5254 15.4073 25.0252C15.9153 24.5249 16.2066 23.8453 16.2188 23.1325L25.6113 18.0413C26.0863 18.4138 26.6775 18.6175 27.2825 18.6175C28.003 18.6169 28.6939 18.3303 29.2033 17.8209C29.7128 17.3114 29.9993 16.6205 30 15.9C29.9993 15.1795 29.7128 14.4887 29.2033 13.9792C28.6939 13.4697 28.003 13.1832 27.2825 13.1825" fill="white"/>
</svg>
