<svg width="20" height="20" viewBox="0 0 20 20" fill="none" xmlns="http://www.w3.org/2000/svg">
<path d="M16.291 9.16404C15.9118 8.31064 15.3606 7.54466 14.6719 6.91404L14.1035 6.39255C14.0842 6.37533 14.061 6.36311 14.0359 6.35696C14.0107 6.35082 13.9845 6.35093 13.9594 6.35729C13.9344 6.36366 13.9112 6.37608 13.8921 6.39346C13.8729 6.41085 13.8584 6.43267 13.8496 6.45701L13.5957 7.18552C13.4375 7.64255 13.1465 8.10935 12.7344 8.56834C12.707 8.59763 12.6758 8.60545 12.6543 8.6074C12.6328 8.60935 12.5996 8.60545 12.5703 8.5781C12.543 8.55466 12.5293 8.51951 12.5312 8.48435C12.6035 7.30857 12.252 5.9824 11.4824 4.53904C10.8457 3.33982 9.96094 2.40427 8.85547 1.75193L8.04883 1.27732C7.94336 1.21482 7.80859 1.29685 7.81445 1.4199L7.85742 2.3574C7.88672 2.99802 7.8125 3.56443 7.63672 4.03513C7.42188 4.6113 7.11328 5.14646 6.71875 5.62693C6.44419 5.96085 6.13299 6.26287 5.79102 6.52732C4.96739 7.16046 4.29768 7.97172 3.83203 8.90037C3.36753 9.83711 3.12557 10.8685 3.125 11.914C3.125 12.8359 3.30664 13.7285 3.66602 14.5703C4.01302 15.3808 4.51379 16.1163 5.14063 16.7363C5.77344 17.3613 6.50781 17.8535 7.32617 18.1953C8.17383 18.5508 9.07227 18.7304 10 18.7304C10.9277 18.7304 11.8262 18.5508 12.6738 18.1972C13.4902 17.8574 14.2325 17.3619 14.8594 16.7383C15.4922 16.1133 15.9883 15.3828 16.334 14.5722C16.6928 13.7327 16.8769 12.829 16.875 11.916C16.875 10.9629 16.6797 10.0371 16.291 9.16404Z" fill="white"/>
</svg>
